<svg xmlns="http://www.w3.org/2000/svg" viewBox="0 0 1000.18 1000.09"><defs><style>.cls-1{fill:#fff;}.cls-2{stroke:#000;stroke-miterlimit:10;}</style></defs><title>Asset 5</title><g id="Layer_2" data-name="Layer 2"><g id="Layer_4" data-name="Layer 4"><path class="cls-1" d="M497.27,0C218.69,1.58-7.31,236.5.18,513.6,7.52,785,236.35,1005,509.27,1000c270.51-5,490.09-229.28,490.91-498.41C1001,226.76,773.43-1.55,497.27,0Z"/><path class="cls-2" d="M813,568.29c-37.53,103.1-153.25,157.06-256.35,119.53S399.59,534.58,437.12,431.48,590.36,274.42,693.46,312l-34.2,94c-51.55-18.77-109.41,8.21-128.17,59.76s8.22,109.41,59.77,128.17,109.4-8.21,128.17-59.76Z"/><circle class="cls-2" cx="766.01" cy="551.19" r="50"/><circle class="cls-2" cx="676.36" cy="358.93" r="50"/><circle class="cls-2" cx="375.18" cy="375.01" r="25"/><circle class="cls-2" cx="300.18" cy="375.01" r="25"/><polyline class="cls-2" points="375.18 400.01 300.18 400.01 300.18 350.01 375.18 350.01"/><circle class="cls-2" cx="350.18" cy="475.01" r="25"/><circle class="cls-2" cx="250.18" cy="475.01" r="25"/><polyline class="cls-2" points="350.18 500.01 250.18 500.01 250.18 450.01 350.18 450.01"/><circle class="cls-2" cx="325.18" cy="575.01" r="25"/><circle class="cls-2" cx="200.18" cy="575.01" r="25"/><polyline class="cls-2" points="325.18 600.01 200.18 600.01 200.18 550.01 325.18 550.01"/></g></g></svg>