<svg xmlns="http://www.w3.org/2000/svg" viewBox="0 0 641.8 400.75"><defs><style>.cls-1{stroke:#000;stroke-miterlimit:10;}</style></defs><title>cyclr logo</title><g id="Layer_2" data-name="Layer 2"><g id="Layer_4" data-name="Layer 4"><path class="cls-1" d="M638.32,268.78C600.79,371.88,485.07,425.84,382,388.32S224.91,235.07,262.44,132,415.68-25.09,518.78,12.44l-34.2,94C433,87.64,375.17,114.62,356.41,166.17s8.21,109.41,59.76,128.18,109.41-8.22,128.18-59.77Z"/><circle class="cls-1" cx="591.33" cy="251.68" r="50"/><circle class="cls-1" cx="501.68" cy="59.42" r="50"/><circle class="cls-1" cx="200.5" cy="75.5" r="25"/><circle class="cls-1" cx="125.5" cy="75.5" r="25"/><polyline class="cls-1" points="200.5 100.5 125.5 100.5 125.5 50.5 200.5 50.5"/><circle class="cls-1" cx="175.5" cy="175.5" r="25"/><circle class="cls-1" cx="75.5" cy="175.5" r="25"/><polyline class="cls-1" points="175.5 200.5 75.5 200.5 75.5 150.5 175.5 150.5"/><circle class="cls-1" cx="150.5" cy="275.5" r="25"/><circle class="cls-1" cx="25.5" cy="275.5" r="25"/><polyline class="cls-1" points="150.5 300.5 25.5 300.5 25.5 250.5 150.5 250.5"/></g></g></svg>